# xmcd
#
# Track frame offsets:
#	182
#	11545
#	30720
#	59195
#	69270
#	80870
#	93507
#	104982
#	118032
#	130457
#	142495
#	155645
#	169357
#	182420
#	194745
#	206232
#	217282
#	230032
#
# Disc length: 3223 seconds
#
# Revision: 0
# Processed by: cddbd v1.5.2PL0 Copyright (c) Steve Scherf et al.
# Submitted via: EasyCDDAExtractor 16.0.6.1
#
DISCID=310c9512
DTITLE=John Lee Hooker - The Best of John Lee Hooker
DYEAR=1993
DGENRE=Blues
TTITLE0=Boom Boom
TTITLE1=Shake It Baby
TTITLE2=The Right Time
TTITLE3=Dimples
TTITLE4=Boogie Chillun
TTITLE5=Mambo Chillun
TTITLE6=Wheel and Deal
TTITLE7=Im So Excited
TTITLE8=Trouble Blues
TTITLE9=Everybody Rockin
TTITLE10=Unfriendly Woman
TTITLE11=Time Is Marchin
TTITLE12=I See You When Youre Weak
TTITLE13=Im in the Mood
TTITLE14=Will the Circle Be Unbroken
TTITLE15=This Is Hip
TTITLE16=Hobo Blues
TTITLE17=Solid Sender
EXTD=
EXTT0=
EXTT1=
EXTT2=
EXTT3=
EXTT4=
EXTT5=
EXTT6=
EXTT7=
EXTT8=
EXTT9=
EXTT10=
EXTT11=
EXTT12=
EXTT13=
EXTT14=
EXTT15=
EXTT16=
EXTT17=
PLAYORDER=
